<svg version="1.1" xmlns="http://www.w3.org/2000/svg" xmlns:xlink="http://www.w3.org/1999/xlink" width="950" height="650">
  <g transform="translate(25,25)">
    <polygon points="15,20 20,15 20,-15 15,-20 -15,-20 -20,-15 -20,15 -15,20" stroke="rgb(206, 12, 23)" fill="rgb(242, 33, 45)" stroke-width="2px"/>
    <polygon points="15,20 20,15 20,-15 15,-20 -15,-20 -20,-15 -20,15 -15,20" stroke="rgb(206, 12, 23)" fill="rgb(242, 33, 45)" stroke-width="4px" transform="scale(0.5,0.5)"/>
    <line x1="5" y1="10" x2="10" y2="20" stroke="rgb(206, 12, 23)" stroke-width="2px"/>
    <line x1="10" y1="5" x2="20" y2="10" stroke="rgb(206, 12, 23)" stroke-width="2px"/>
    <line x1="-5" y1="10" x2="-10" y2="20" stroke="rgb(206, 12, 23)" stroke-width="2px"/>
    <line x1="-10" y1="5" x2="-20" y2="10" stroke="rgb(206, 12, 23)" stroke-width="2px"/>
    <line x1="5" y1="-10" x2="10" y2="-20" stroke="rgb(206, 12, 23)" stroke-width="2px"/>
    <line x1="10" y1="-5" x2="20" y2="-10" stroke="rgb(206, 12, 23)" stroke-width="2px"/>
    <line x1="-5" y1="-10" x2="-10" y2="-20" stroke="rgb(206, 12, 23)" stroke-width="2px"/>
    <line x1="-10" y1="-5" x2="-20" y2="-10" stroke="rgb(206, 12, 23)" stroke-width="2px"/>
  </g>
</svg>
